<svg xmlns="http://www.w3.org/2000/svg" viewBox="0 0 178.79 249.65"><defs><style>.cls-1{fill:#fff;stroke:#000;stroke-width:1px;}.cls-2{fill:#d40000;}</style></defs><title>Asset 17</title><g id="Layer_2" data-name="Layer 2"><g id="svg11376"><g id="g11369-4-9"><g id="g9800-8-2"><rect id="rect9802-4-3" class="cls-1" x="0.5" y="0.5" width="177.79" height="248.65" rx="8.5" ry="8.5"/></g><path id="path9834-5-2" class="cls-2" d="M14.21,56.3s-1.77-2.54-4.16-5.53c-1.6-2-2.88-4.17-3-6-.14-2.13,1.15-4.27,3.49-4.38s3.28,1.64,3.67,3.08c.39-1.44,1.33-3.19,3.67-3.08s3.63,2.24,3.49,4.38c-.12,1.87-1.4,4-3,6C16,53.76,14.21,56.3,14.21,56.3Z"/><path id="path9836-5-8" class="cls-2" d="M164.57,193.35s-1.77,2.54-4.16,5.53c-1.6,2-2.88,4.17-3,6-.14,2.13,1.15,4.27,3.49,4.38s3.28-1.64,3.67-3.08c.39,1.44,1.33,3.19,3.67,3.08s3.63-2.24,3.49-4.38c-.12-1.87-1.4-4-3-6C166.35,195.9,164.57,193.35,164.57,193.35Z"/><path id="path9840-3-6" class="cls-2" d="M89.39,64.85s-3.72-6.1-8.73-13.28c-3.35-4.8-6-10-6.28-14.48C74.09,32,76.8,26.83,81.7,26.58s6.88,3.95,7.69,7.4c.81-3.46,2.8-7.65,7.69-7.4s7.61,5.38,7.32,10.5c-.25,4.48-2.93,9.68-6.28,14.48C93.11,58.74,89.39,64.85,89.39,64.85Z"/><path id="path9850-2-3" class="cls-2" d="M89.39,144s-3.72-6.1-8.73-13.28c-3.35-4.8-6-10-6.28-14.48-.29-5.12,2.42-10.25,7.32-10.5s6.88,3.95,7.69,7.4c.81-3.46,2.8-7.65,7.69-7.4s7.61,5.38,7.32,10.5c-.25,4.48-2.93,9.68-6.28,14.48C93.11,137.86,89.39,144,89.39,144Z"/><path id="path9854-8-0" class="cls-2" d="M89.39,184.8s-3.72,6.1-8.73,13.28c-3.35,4.8-6,10-6.28,14.48-.29,5.12,2.42,10.25,7.32,10.5s6.88-3.95,7.69-7.4c.81,3.46,2.8,7.65,7.69,7.4s7.61-5.38,7.32-10.5c-.25-4.48-2.93-9.68-6.28-14.48C93.11,190.91,89.39,184.8,89.39,184.8Z"/><path id="path17-2-9-8-4" class="cls-2" d="M5.68,32.08l2-1.49c1.76,2.86,3.72,4.75,6.72,4.43,4.51-.31,6.38-5,5.43-8.61a5.21,5.21,0,0,0-7.61-3.05,7.43,7.43,0,0,1-1.51.73c-.31,0-1-1.4-.92-1.83a93,93,0,0,1,6.83-8H9.09v3.42H6.19V11.54H21v2.08A50.32,50.32,0,0,0,15.7,20a7.17,7.17,0,0,1,6.75,5.39A14.31,14.31,0,0,1,22,32.63a9.11,9.11,0,0,1-7.4,5.19c-5,.34-7.63-3.16-8.95-5.75h0Z"/><path id="path17-5-3-9-1-3" class="cls-2" d="M173.1,217.57l-2,1.49c-1.76-2.86-3.72-4.75-6.72-4.43-4.51.31-6.38,5-5.43,8.61a5.21,5.21,0,0,0,7.61,3.05,7.43,7.43,0,0,1,1.51-.73c.31,0,1,1.4.92,1.83a93,93,0,0,1-6.83,8h7.56V232h2.9v6.13H157.82V236a50.32,50.32,0,0,0,5.26-6.36,7.17,7.17,0,0,1-6.75-5.39,14.31,14.31,0,0,1,.41-7.27,9.11,9.11,0,0,1,7.4-5.19c5-.34,7.63,3.16,8.95,5.75h0Z"/></g></g></g></svg>