<svg id="Layer_1" data-name="Layer 1" xmlns="http://www.w3.org/2000/svg" viewBox="0 0 223.23 311.81"><defs><style>.cls-1,.cls-5{fill:#fff;}.cls-1{stroke:#000;}.cls-2{fill:#131f67;}.cls-3,.cls-4{fill:none;}.cls-3{stroke:#131f67;stroke-linecap:round;stroke-width:4.95px;}</style></defs><title>Back</title><rect id="rect9800" class="cls-1" x="0.5" y="0.5" width="222.23" height="310.81" rx="10.63" ry="10.63"/><path class="cls-2" d="M22.23,20.06V291.75H201V20.06Zm88.6,179.23a43.39,43.39,0,1,1,43.39-43.39A43.39,43.39,0,0,1,110.83,199.29Z"/><rect id="rect9802" class="cls-3" x="13.09" y="12.58" width="197.05" height="286.64"/><rect id="rect9852" class="cls-3" x="13.09" y="12.58" width="197.05" height="286.64"/><circle class="cls-2" cx="110.83" cy="155.9" r="40.28"/><path class="cls-4" d="M140.25,173.38H118.69a1.75,1.75,0,0,1,0-3.5h18.5l-12.08-20.57-13.86,23.21a1.75,1.75,0,0,1-1.5.85H82.06a1.75,1.75,0,0,1-1.51-2.64L103,132.49a1.75,1.75,0,0,1,1.51-.86h0a1.75,1.75,0,0,1,1.51.88l9.44,16.38a1.75,1.75,0,0,1-3,1.75l-7.93-13.77-19.37,33h23.64L123.62,145a1.75,1.75,0,0,1,1.5-.85h0a1.75,1.75,0,0,1,1.5.86l15.13,25.75a1.75,1.75,0,0,1-1.51,2.64Z"/><path class="cls-4" d="M140.25,173.38H118.69a1.75,1.75,0,0,1,0-3.5h18.5l-12.08-20.57-13.86,23.21a1.75,1.75,0,0,1-1.5.85H82.06a1.75,1.75,0,0,1-1.51-2.64L103,132.49a1.75,1.75,0,0,1,1.51-.86h0a1.75,1.75,0,0,1,1.51.88l9.44,16.38a1.75,1.75,0,0,1-3,1.75l-7.93-13.77-19.37,33h23.64L123.62,145a1.75,1.75,0,0,1,1.5-.85h0a1.75,1.75,0,0,1,1.5.86l15.13,25.75a1.75,1.75,0,0,1-1.51,2.64Z"/><path class="cls-5" d="M140.25,173.38H118.69a1.75,1.75,0,0,1,0-3.5h18.5l-12.08-20.57-13.86,23.21a1.75,1.75,0,0,1-1.5.85H82.06a1.75,1.75,0,0,1-1.51-2.64L103,132.49a1.75,1.75,0,0,1,1.51-.86h0a1.75,1.75,0,0,1,1.51.88l9.44,16.38a1.75,1.75,0,0,1-3,1.75l-7.93-13.77-19.37,33h23.64L123.62,145a1.75,1.75,0,0,1,1.5-.85h0a1.75,1.75,0,0,1,1.5.86l15.13,25.75a1.75,1.75,0,0,1-1.51,2.64Z"/><polyline class="cls-4" points="113.94 149.75 104.5 133.38 82.06 171.63 109.75 171.63 125.13 145.88 140.25 171.63 118.69 171.63"/></svg>