<svg xmlns="http://www.w3.org/2000/svg" viewBox="0 0 223.23 311.81"><defs><style>.cls-1,.cls-10,.cls-11,.cls-4,.cls-7,.cls-8{fill:#fff;}.cls-1{stroke:#000;}.cls-2,.cls-5,.cls-6{fill:none;}.cls-2,.cls-6,.cls-7,.cls-8,.cls-9{stroke:#131f67;}.cls-2{stroke-linecap:round;stroke-width:4.95px;}.cls-3,.cls-9{fill:#131f67;}.cls-11,.cls-4,.cls-5{stroke:#fff;}.cls-4{stroke-width:3.34px;opacity:0.98;}.cls-4,.cls-9{isolation:isolate;}.cls-5,.cls-7{stroke-width:2.24px;}.cls-6,.cls-8{stroke-width:2.3px;}.cls-9{stroke-width:2.23px;opacity:0.99;}</style></defs><title>Asset 1</title><g id="Layer_2" data-name="Layer 2"><g id="svg3775"><g id="g9798"><rect id="rect9800" class="cls-1" x="0.5" y="0.5" width="222.23" height="310.81" rx="10.63" ry="10.63"/><rect id="rect9802" class="cls-2" x="13.09" y="12.58" width="197.05" height="286.64"/><rect id="rect9804" class="cls-3" x="19.61" y="18.36" width="184" height="275.09"/><g id="g9806"><path id="path9808" class="cls-4" d="M47.3,44.41V214.29l8.5,20,8.5-20V44.41l-2.79-3.69h-11Z"/><polygon id="rect9810" class="cls-5" points="55.81 132.88 71.6 109.67 55.81 86.45 40.02 109.67 55.81 132.88"/><polygon id="rect9812" class="cls-6" points="55.81 94.75 82.92 71.53 55.81 48.32 28.69 71.53 55.81 94.75"/><polygon id="rect9814" class="cls-7" points="55.81 134.49 71.6 111.28 55.81 88.06 40.02 111.28 55.81 134.49"/><polygon id="rect9816" class="cls-8" points="55.81 96.36 82.92 73.14 55.81 49.93 28.69 73.14 55.81 96.36"/><path id="path9818" class="cls-9" d="M50.32,135.28l1.14-1.75,1.14,1.75V243.65H50.32Z"/><path id="path9820" class="cls-9" d="M59,135.28l1.14-1.75,1.14,1.75V243.65H59Z"/></g><g id="g9822"><path id="path9824" class="cls-4" d="M158.92,267.4V97.52l8.5-20,8.5,20V267.4l-2.79,3.69h-11Z"/><polygon id="rect9826" class="cls-5" points="167.42 178.93 183.21 202.14 167.42 225.36 151.63 202.14 167.42 178.93"/><polygon id="rect9828" class="cls-6" points="167.42 217.06 194.54 240.28 167.42 263.49 140.31 240.28 167.42 217.06"/><polygon id="rect9830" class="cls-7" points="167.42 177.32 183.21 200.53 167.42 223.75 151.63 200.53 167.42 177.32"/><polygon id="rect9832" class="cls-8" points="167.42 215.45 194.54 238.67 167.42 261.88 140.31 238.67 167.42 215.45"/><path id="path9834" class="cls-9" d="M161.93,176.53l1.14,1.75,1.14-1.75V68.16h-2.28Z"/><path id="path9836" class="cls-9" d="M170.63,176.53l1.14,1.75,1.14-1.75V68.16h-2.28Z"/></g><g id="g9838"><g id="g9840"><path id="rect9842" class="cls-10" d="M94.34,161.37,125,143.68c5.08-2.94,10.08-3.8,11.16-1.93h0c1.08,1.87-2.17,5.76-7.25,8.7L98.25,168.13c-5.08,2.94-10.08,3.8-11.16,1.93h0C86,168.2,89.26,164.3,94.34,161.37Z"/><circle id="circle9844" class="cls-10" cx="111.61" cy="155.9" r="16.25"/><path id="rect9846" class="cls-10" d="M117.08,173.18,99.39,142.54c-2.94-5.08-3.8-10.08-1.93-11.16h0c1.87-1.08,5.76,2.17,8.7,7.25l17.69,30.63c2.94,5.08,3.8,10.08,1.93,11.16h0C123.9,181.51,120,178.26,117.08,173.18Z"/><circle id="circle9848" class="cls-3" cx="111.61" cy="155.9" r="10.63"/></g><rect id="rect9850" class="cls-10" x="107.02" y="151.31" width="9.19" height="9.19" transform="translate(-63 76.69) rotate(-30)"/></g><rect id="rect9852" class="cls-2" x="13.09" y="12.58" width="197.05" height="286.64"/><rect id="rect9854" class="cls-3" x="19.61" y="18.36" width="184" height="275.09"/><g id="g9856"><path id="path9858" class="cls-4" d="M47.3,44.41V214.29l8.5,20,8.5-20V44.41l-2.79-3.69h-11Z"/><polygon id="rect9860" class="cls-5" points="55.81 132.88 71.6 109.67 55.81 86.45 40.02 109.67 55.81 132.88"/><polygon id="rect9862" class="cls-6" points="55.81 94.75 82.92 71.53 55.81 48.32 28.69 71.53 55.81 94.75"/><polygon id="rect9864" class="cls-7" points="55.81 134.49 71.6 111.28 55.81 88.06 40.02 111.28 55.81 134.49"/><polygon id="rect9866" class="cls-8" points="55.81 96.36 82.92 73.14 55.81 49.93 28.69 73.14 55.81 96.36"/><path id="path9868" class="cls-9" d="M50.32,135.28l1.14-1.75,1.14,1.75V243.65H50.32Z"/><path id="path9870" class="cls-9" d="M59,135.28l1.14-1.75,1.14,1.75V243.65H59Z"/></g><g id="g9872"><path id="path9874" class="cls-4" d="M158.92,267.4V97.52l8.5-20,8.5,20V267.4l-2.79,3.69h-11Z"/><polygon id="rect9876" class="cls-5" points="167.42 178.93 183.21 202.14 167.42 225.36 151.63 202.14 167.42 178.93"/><polygon id="rect9878" class="cls-6" points="167.42 217.06 194.54 240.28 167.42 263.49 140.31 240.28 167.42 217.06"/><polygon id="rect9880" class="cls-7" points="167.42 177.32 183.21 200.53 167.42 223.75 151.63 200.53 167.42 177.32"/><polygon id="rect9882" class="cls-8" points="167.42 215.45 194.54 238.67 167.42 261.88 140.31 238.67 167.42 215.45"/><path id="path9884" class="cls-9" d="M161.93,176.53l1.14,1.75,1.14-1.75V68.16h-2.28Z"/><path id="path9886" class="cls-9" d="M170.63,176.53l1.14,1.75,1.14-1.75V68.16h-2.28Z"/></g><g id="g9888"><path id="path5853-6" class="cls-11" d="M98.75,178.18A4.9,4.9,0,1,1,92.06,180,4.9,4.9,0,0,1,98.75,178.18Z"/><path id="path5080-9" class="cls-11" d="M129.38,125.14a4.9,4.9,0,1,1-6.69,1.79A4.9,4.9,0,0,1,129.38,125.14Z"/><path id="path9890" class="cls-11" d="M127,129.3"/><circle id="circle9892" class="cls-10" cx="111.61" cy="155.9" r="16.25"/><circle id="circle9894" class="cls-3" cx="111.61" cy="155.9" r="10.63"/><rect id="rect9896" class="cls-10" x="108.21" y="152.5" width="6.81" height="6.81" transform="translate(-79.21 174.62) rotate(-60)"/></g></g></g></g></svg>